<svg width="89.080566" height="14.223633" viewBox="0 0 89.0806 14.2236" fill="none" xmlns="http://www.w3.org/2000/svg" xmlns:xlink="http://www.w3.org/1999/xlink">
	<desc>
			Created with Pixso.
	</desc>
	<path d="M20.4085 13.3154Q22.0394 14.2236 23.9828 14.2236Q25.9408 14.2236 27.5716 13.3154Q29.2025 12.4023 30.14 10.7715Q31.0824 9.14062 31.0824 7.09961Q31.0824 5.06348 30.14 3.44238Q29.2025 1.82129 27.5716 0.913086Q25.9408 0 23.9828 0Q22.0394 0 20.4085 0.913086Q18.7826 1.82129 17.8304 3.44238Q16.8831 5.06348 16.8831 7.09961Q16.8831 9.14062 17.8304 10.7715Q18.7826 12.4023 20.4085 13.3154ZM14.6387 14.082L14.6387 0.180664L12.2021 0.180664L7.33887 11.084L2.46094 0.180664L0 0.180664L0 14.082L2.28027 14.082L2.28027 4.56055L6.54297 14.082L8.12012 14.082L12.3633 4.56055L12.3633 14.082L14.6387 14.082ZM40.0827 14.082L45.3024 0.180664L42.9001 0.180664L38.7594 11.7432L34.6432 0.180664L32.2018 0.180664L37.4411 14.082L40.0827 14.082ZM26.4388 11.6113Q25.3597 12.2412 23.9828 12.2412Q22.6009 12.2412 21.5218 11.6113Q20.4427 10.9814 19.8324 9.81445Q19.222 8.64258 19.222 7.09961Q19.222 5.56152 19.8324 4.4043Q20.4427 3.24219 21.5218 2.62207Q22.6009 2.00195 23.9828 2.00195Q25.3597 2.00195 26.4388 2.62207Q27.5228 3.24219 28.1283 4.4043Q28.7386 5.56152 28.7386 7.09961Q28.7386 8.64258 28.1283 9.81445Q27.5228 10.9814 26.4388 11.6113Z" fill="#FFFFFF"/>
	<path d="M83.6802 6.10352L83.6802 2.02148L89.0806 2.02148L89.0806 0.161133L81.3999 0.161133L81.3999 14.082L89.0806 14.082L89.0806 12.2217L83.6802 12.2217L83.6802 7.96387L88.48 7.96387L88.48 6.10352L83.6802 6.10352ZM56.1795 2.04102L56.1795 0.180664L46.4822 0.180664L46.4822 2.04102L50.2029 2.04102L50.2029 14.082L52.4832 14.082L52.4832 2.04102L56.1795 2.04102ZM60.7602 14.082L60.7602 0.180664L58.4799 0.180664L58.4799 14.082L60.7602 14.082ZM78.3986 14.082L78.3986 0.180664L75.9621 0.180664L71.0988 11.084L66.2209 0.180664L63.7599 0.180664L63.7599 14.082L66.0402 14.082L66.0402 4.56055L70.3029 14.082L71.8801 14.082L76.1232 4.56055L76.1232 14.082L78.3986 14.082Z" fill="#F8242F"/>
	<defs/>
</svg>
