<svg width="24.000000" height="24.000000" viewBox="0 0 24 24" fill="none" xmlns="http://www.w3.org/2000/svg" xmlns:xlink="http://www.w3.org/1999/xlink">
	<desc>
			Created with Pixso.
	</desc>
	<path d="M7.88 12.07C7.88 11.66 8.21997 11.32 8.63 11.32L14.11 11.32L14.11 2.86C14.1 2.38 13.72 2 13.24 2C7.34998 2 3.23999 6.11 3.23999 12C3.23999 17.89 7.34998 22 13.24 22C13.71 22 14.1 21.62 14.1 21.14L14.1 12.81L8.63 12.81C8.20996 12.82 7.88 12.48 7.88 12.07Z" fill-rule="evenodd" fill="#D0D0D0"/>
	<path d="M20.54 11.54L17.7 8.69003C17.41 8.40004 16.93 8.40004 16.64 8.69003C16.35 8.98004 16.35 9.46004 16.64 9.75003L18.2 11.31L14.1 11.31L14.1 12.81L18.19 12.81L16.63 14.37C16.34 14.66 16.34 15.14 16.63 15.43C16.78 15.58 16.97 15.65 17.16 15.65C17.35 15.65 17.54 15.58 17.69 15.43L20.53 12.58C20.83 12.3 20.83 11.83 20.54 11.54Z" fill-rule="evenodd" fill="#D0D0D0"/>
	<g opacity="0.000000"/>
	<defs/>
</svg>
