<svg width="24.000000" height="24.500000" viewBox="0 0 24 24.5" fill="none" xmlns="http://www.w3.org/2000/svg" xmlns:xlink="http://www.w3.org/1999/xlink">
	<desc>
			Created with Pixso.
	</desc>
	<path d="M20.19 14.56L19.06 12.68C18.81 12.27 18.59 11.48 18.59 11L18.59 9.12997C18.59 5.5 15.64 2.54999 12.02 2.54999C8.38995 2.56 5.43997 5.5 5.43997 9.12997L5.43997 10.99C5.43997 11.47 5.21997 12.26 4.97995 12.67L3.84995 14.55C3.41995 15.28 3.31995 16.11 3.58997 16.83C3.85995 17.56 4.46997 18.14 5.26996 18.4C6.34995 18.76 7.43997 19.02 8.54996 19.21C8.65997 19.23 8.76996 19.24 8.87994 19.26C9.01996 19.28 9.16995 19.3 9.31995 19.32C9.57996 19.36 9.83997 19.39 10.11 19.41C10.74 19.47 11.38 19.5 12.02 19.5C12.65 19.5 13.28 19.47 13.9 19.41C14.1299 19.39 14.36 19.37 14.58 19.34C14.7599 19.32 14.94 19.3 15.12 19.27C15.2299 19.26 15.34 19.24 15.45 19.22C16.5699 19.04 17.68 18.76 18.7599 18.4C19.53 18.14 20.12 17.56 20.4 16.82C20.68 16.07 20.5999 15.25 20.19 14.56ZM12.75 10.5C12.75 10.92 12.41 11.26 11.99 11.26C11.5699 11.26 11.2299 10.92 11.2299 10.5L11.2299 7.39999C11.2299 6.97998 11.5699 6.63998 11.99 6.63998C12.41 6.63998 12.75 6.97998 12.75 7.39999L12.75 10.5Z" fill-rule="evenodd" fill="#FFFFFF"/>
	<path d="M14.83 20.51C14.4101 21.67 13.3 22.5 12.0001 22.5C11.2101 22.5 10.4301 22.18 9.88007 21.61C9.56006 21.31 9.32007 20.91 9.18005 20.5C9.31006 20.52 9.44006 20.53 9.58005 20.55C9.81006 20.58 10.05 20.61 10.29 20.63C10.86 20.68 11.4401 20.71 12.0201 20.71C12.5901 20.71 13.1601 20.68 13.7201 20.63C13.9301 20.61 14.14 20.6 14.3401 20.57C14.5001 20.55 14.6601 20.53 14.83 20.51Z" fill-rule="evenodd" fill="#FFFFFF"/>
	<g opacity="0.000000"/>
	<circle cx="17.000000" cy="4.500000" r="3.000000" fill="#F8242F"/>
	<circle cx="17.000000" cy="4.500000" r="3.750000" stroke="#191817" stroke-width="1.500000"/>
	<defs/>
</svg>
