<svg width="24.000000" height="24.000000" viewBox="0 0 24 24" fill="none" xmlns="http://www.w3.org/2000/svg" xmlns:xlink="http://www.w3.org/1999/xlink">
	<desc>
			Created with Pixso.
	</desc>
	<g opacity="0.000000"/>
	<path d="M17.53 7.77C17.46 7.76 17.39 7.76 17.32 7.77C15.77 7.72 14.54 6.45 14.54 4.89C14.54 3.3 15.83 2 17.43 2C19.02 2 20.3199 3.29 20.3199 4.89C20.31 6.45 19.08 7.72 17.53 7.77Z" fill-rule="evenodd" fill="#D0D0D0"/>
	<path d="M20.79 14.7C19.67 15.45 18.1 15.73 16.65 15.54C17.03 14.72 17.23 13.81 17.24 12.85C17.24 11.85 17.02 10.9 16.6 10.07C18.08 9.87001 19.65 10.15 20.78 10.9C22.36 11.94 22.36 13.65 20.79 14.7Z" fill-rule="evenodd" fill="#D0D0D0"/>
	<path d="M6.44 7.77C6.50995 7.76 6.57996 7.76 6.64996 7.77C8.19995 7.72 9.42999 6.45 9.42999 4.89C9.42999 3.29 8.13995 2 6.53998 2C4.94995 2 3.65997 3.29 3.65997 4.89C3.65997 6.45 4.88995 7.72 6.44 7.77Z" fill-rule="evenodd" fill="#D0D0D0"/>
	<path d="M6.54999 12.85C6.54999 13.82 6.76001 14.74 7.14001 15.57C5.72998 15.72 4.26001 15.42 3.17999 14.71C1.59998 13.66 1.59998 11.95 3.17999 10.9C4.25 10.18 5.76001 9.88998 7.17999 10.05C6.77002 10.89 6.54999 11.84 6.54999 12.85Z" fill-rule="evenodd" fill="#D0D0D0"/>
	<path d="M12.12 15.87C12.04 15.86 11.95 15.86 11.86 15.87C10.02 15.81 8.54999 14.3 8.54999 12.44C8.56 10.54 10.09 9 12 9C13.9 9 15.44 10.54 15.44 12.44C15.43 14.3 13.97 15.81 12.12 15.87Z" fill-rule="evenodd" fill="#D0D0D0"/>
	<path d="M8.87 17.94C7.35999 18.95 7.35999 20.61 8.87 21.61C10.59 22.76 13.41 22.76 15.13 21.61C16.64 20.6 16.64 18.94 15.13 17.94C13.42 16.79 10.6 16.79 8.87 17.94Z" fill-rule="evenodd" fill="#D0D0D0"/>
	<defs/>
</svg>
