<svg width="24.000000" height="24.000000" viewBox="0 0 24 24" fill="none" xmlns="http://www.w3.org/2000/svg" xmlns:xlink="http://www.w3.org/1999/xlink">
	<desc>
			Created with Pixso.
	</desc>
	<path d="M20.02 11.01C20.02 15.9861 15.9861 20.02 11.01 20.02C6.03391 20.02 2 15.9861 2 11.01C2 6.03391 6.03391 2 11.01 2C15.9861 2 20.02 6.03391 20.02 11.01Z" fill-rule="evenodd" fill="#FFFFFF"/>
	<path d="M21.9901 18.95C21.6601 18.34 20.9601 18 20.0201 18C19.3101 18 18.7 18.29 18.3401 18.79C17.98 19.29 17.9001 19.96 18.1201 20.63C18.55 21.93 19.3 22.22 19.7101 22.27C19.7701 22.28 19.83 22.28 19.9001 22.28C20.3401 22.28 21.0201 22.09 21.6801 21.1C22.2101 20.33 22.3101 19.56 21.9901 18.95Z" fill-rule="evenodd" fill="#FFFFFF"/>
	<g opacity="0.000000"/>
	<defs/>
</svg>
