<svg width="24.000000" height="24.000000" viewBox="0 0 24 24" fill="none" xmlns="http://www.w3.org/2000/svg" xmlns:xlink="http://www.w3.org/1999/xlink">
	<desc>
			Created with Pixso.
	</desc>
	<path d="M18.94 5.42001L13.77 2.43C12.78 1.86 11.23 1.86 10.24 2.43L5.02002 5.44C2.95001 6.84 2.83002 7.05 2.83002 9.28L2.83002 14.71C2.83002 16.94 2.95001 17.16 5.06 18.58L10.23 21.57C10.73 21.86 11.37 22 12 22C12.63 22 13.27 21.86 13.76 21.57L18.98 18.56C21.05 17.16 21.17 16.95 21.17 14.72L21.17 9.28C21.17 7.05 21.05 6.84 18.94 5.42001ZM12 15.25C10.21 15.25 8.75 13.79 8.75 12C8.75 10.21 10.21 8.75 12 8.75C13.79 8.75 15.25 10.21 15.25 12C15.25 13.79 13.79 15.25 12 15.25Z" fill-rule="evenodd" fill="#D0D0D0"/>
	<g opacity="0.000000"/>
	<defs/>
</svg>
