<svg width="24.000000" height="24.000000" viewBox="0 0 24 24" fill="none" xmlns="http://www.w3.org/2000/svg" xmlns:xlink="http://www.w3.org/1999/xlink">
	<desc>
			Created with Pixso.
	</desc>
	<path d="M9.27002 2L14.73 2L14.73 6.36L9.27002 6.36L9.27002 2Z" fill-rule="evenodd" fill="#D0D0D0"/>
	<path d="M16.23 2L16.23 6.36L21.87 6.36C21.36 3.61 19.33 2.00999 16.23 2Z" fill-rule="evenodd" fill="#D0D0D0"/>
	<path d="M2 7.86L2 16.19C2 19.83 4.16998 22 7.81 22L16.19 22C19.83 22 22 19.83 22 16.19L22 7.86L2 7.86ZM14.44 16.18L12.36 17.38C11.92 17.63 11.49 17.76 11.09 17.76C10.79 17.76 10.52 17.69 10.27 17.55C9.69 17.22 9.37 16.54 9.37 15.66L9.37 13.26C9.37 12.38 9.69 11.7 10.27 11.37C10.85 11.03 11.59 11.09 12.36 11.54L14.44 12.74C15.21 13.18 15.63 13.8 15.63 14.47C15.63 15.14 15.2 15.73 14.44 16.18Z" fill-rule="evenodd" fill="#D0D0D0"/>
	<path d="M7.77002 2C4.66998 2.00999 2.64001 3.61 2.13 6.36L7.77002 6.36L7.77002 2Z" fill-rule="evenodd" fill="#D0D0D0"/>
	<g opacity="0.000000"/>
	<defs/>
</svg>
