<svg width="38.000000" height="38.000000" viewBox="0 0 38 38" fill="none" xmlns="http://www.w3.org/2000/svg" xmlns:xlink="http://www.w3.org/1999/xlink">
	<desc>
			Created with Pixso.
	</desc>
	<path d="M8.88605 28.33L8.88605 1.24045C8.88239 0.910217 8.7428 0.594757 8.49762 0.362488C8.2525 0.130249 7.92151 0 7.57666 0L7.2702 0C6.92535 0 6.59436 0.130249 6.34924 0.362488C6.10406 0.594757 5.96448 0.910217 5.96082 1.24045L5.96082 28.33C5.96082 28.6624 6.09875 28.9814 6.3443 29.2165C6.5899 29.4517 6.92291 29.5837 7.2702 29.5837L7.57666 29.5837C7.92395 29.5837 8.25696 29.4517 8.50256 29.2165C8.74811 28.9814 8.88605 28.6624 8.88605 28.33ZM12.2013 26.3559L11.8948 26.3559C11.5476 26.3559 11.2145 26.2239 10.969 25.9887C10.7234 25.7536 10.5854 25.4347 10.5854 25.1021L10.5854 4.46823C10.5892 4.13803 10.7287 3.82254 10.9739 3.5903C11.2191 3.35803 11.55 3.22778 11.8948 3.22781L12.2013 3.22781C12.5462 3.22778 12.8771 3.35803 13.1223 3.5903C13.3675 3.82254 13.507 4.13803 13.5107 4.46823L13.5107 25.1288C13.5107 25.4613 13.3727 25.7802 13.1272 26.0154C12.8817 26.2505 12.5486 26.3559 12.2013 26.3559ZM16.8121 23.1815L16.4916 23.1815C16.1481 23.1815 15.8186 23.0508 15.5756 22.8181C15.3327 22.5855 15.1962 22.2701 15.1962 21.941L15.1962 7.66937C15.1944 7.50534 15.2266 7.34259 15.2908 7.19055C15.355 7.03851 15.4501 6.90021 15.5706 6.7836C15.6911 6.66699 15.8346 6.57443 15.9927 6.51126C16.1508 6.44809 16.3203 6.41556 16.4916 6.41559L16.8121 6.41559C17.1569 6.4191 17.4864 6.55273 17.7289 6.78748C17.9716 7.02225 18.1075 7.33914 18.1075 7.66937L18.1075 21.941C18.1075 22.2701 17.971 22.5855 17.7281 22.8181C17.4851 23.0508 17.1557 23.1815 16.8121 23.1815ZM21.4228 19.9137L21.1302 19.9137C20.7853 19.9137 20.4544 19.7835 20.2092 19.5511C19.9641 19.3189 19.8245 19.0035 19.8209 18.6732L19.8209 10.9905C19.8094 10.8193 19.8348 10.6476 19.8955 10.4861C19.9561 10.3247 20.0508 10.1768 20.1736 10.0518C20.2963 9.9267 20.4445 9.82718 20.6091 9.75916C20.7736 9.69125 20.951 9.65631 21.1302 9.65671L21.4367 9.65671C21.784 9.65671 22.117 9.78876 22.3626 10.0239C22.6082 10.2591 22.7461 10.578 22.7461 10.9105L22.7461 18.6465C22.7479 18.8123 22.7155 18.9768 22.6504 19.1304C22.5855 19.2841 22.4894 19.4239 22.3675 19.5418C22.2457 19.6596 22.1009 19.7531 21.941 19.817C21.7812 19.8809 21.5959 19.9137 21.4228 19.9137ZM26.0474 17.046L25.741 17.046C25.3937 17.046 25.0607 16.9139 24.8151 16.6788C24.5695 16.4436 24.4316 16.1247 24.4316 15.7922L24.4316 13.8048C24.4352 13.4746 24.5748 13.1591 24.8199 12.9269C25.0651 12.6946 25.3961 12.5644 25.741 12.5644L26.0474 12.5644C26.3923 12.5644 26.7233 12.6946 26.9684 12.9269C27.2136 13.1591 27.3532 13.4746 27.3568 13.8048L27.3568 15.7922C27.3568 16.1225 27.2209 16.4394 26.9782 16.6741C26.7357 16.9089 26.3923 17.0425 26.0474 17.046Z" fill-rule="evenodd" fill="#FFFFFF"/>
	<path d="M24.9435 27.7997C24.6692 27.5371 24.5151 27.1808 24.5151 26.8094L24.5151 19.3801C24.5148 19.1992 24.5532 19.0201 24.6274 18.8538C24.7018 18.6875 24.8106 18.5374 24.9474 18.4126C25.0843 18.2879 25.2462 18.191 25.4232 18.1281C25.6004 18.0651 25.789 18.0372 25.9777 18.0463C26.1667 18.0278 26.2956 18.0703 26.4695 18.1277C26.4799 18.1312 26.4905 18.1347 26.5012 18.1382C26.6917 18.2006 26.8656 18.302 27.0114 18.4351C27.157 18.5682 27.2707 18.73 27.3448 18.9093C27.4189 19.0885 27.4515 19.281 27.4404 19.4735L27.4404 26.8094C27.4404 27.1808 27.2863 27.5371 27.012 27.7997C26.7377 28.0623 26.3657 28.2099 25.9777 28.2099C25.5898 28.2099 25.2179 28.0623 24.9435 27.7997ZM19.8905 30.1439C19.8905 30.5154 20.0446 30.8716 20.3188 31.1342C20.5932 31.3969 20.9651 31.5444 21.3531 31.5444C21.741 31.5444 22.113 31.3969 22.3874 31.1342C22.6616 30.8716 22.8157 30.5154 22.8157 30.1439L22.8157 20.4605C22.3738 20.7757 21.904 20.9133 21.3531 20.9006C20.8284 20.8972 20.3177 20.7389 19.8905 20.4471L19.8905 30.1439ZM29.1259 22.2745C29.1259 21.9207 29.2727 21.5814 29.5339 21.3313C29.795 21.0812 30.1494 20.9407 30.5188 20.9407C30.718 20.9232 30.9189 20.9469 31.1077 21.0103C31.2963 21.0738 31.4686 21.1754 31.6126 21.3083C31.7568 21.4411 31.8692 21.6022 31.9424 21.7804C32.0157 21.9586 32.048 22.1499 32.0372 22.3412L32.0372 23.955C32.0372 24.3248 31.8838 24.6793 31.6108 24.9406C31.3379 25.202 30.9677 25.3489 30.5815 25.3489C30.1954 25.3489 29.8251 25.202 29.5522 24.9406C29.2792 24.6793 29.1259 24.3248 29.1259 23.955L29.1259 22.2745ZM17.695 34.3572C17.968 34.0959 18.1214 33.7414 18.1214 33.3717L18.1214 23.7283C17.6859 24.0453 17.15 24.2101 16.6031 24.1951C16.1013 24.1833 15.6155 24.0251 15.2101 23.7416L15.2101 33.3717C15.2101 33.7414 15.3635 34.0959 15.6365 34.3572C15.9095 34.6187 16.2798 34.7655 16.6658 34.7655C17.0519 34.7655 17.4221 34.6187 17.695 34.3572ZM12.048 27.3829C11.5468 27.3685 11.0616 27.2106 10.6551 26.9294L10.6551 36.5995C10.6551 36.9709 10.8092 37.3272 11.0835 37.5898C11.3578 37.8525 11.7298 38 12.1177 38C12.5056 38 12.8776 37.8525 13.1519 37.5898C13.4262 37.3272 13.5803 36.9709 13.5803 36.5995L13.5803 26.9961C13.1254 27.2777 12.5887 27.4132 12.048 27.3829Z" fill-rule="evenodd" fill="#F8242F"/>
	<defs/>
</svg>
