<svg width="24.000000" height="24.000000" viewBox="0 0 24 24" fill="none" xmlns="http://www.w3.org/2000/svg" xmlns:xlink="http://www.w3.org/1999/xlink">
	<desc>
			Created with Pixso.
	</desc>
	<path d="M12 2C6.48001 2 2 6.48 2 12C2 17.52 6.48001 22 12 22C17.52 22 22 17.52 22 12C22 6.48 17.52 2 12 2ZM14.66 13.73L13.38 14.47L12.1 15.21C10.45 16.16 9.10001 15.38 9.10001 13.48L9.10001 12L9.10001 10.52C9.10001 8.61 10.45 7.84 12.1 8.79L13.38 9.53L14.66 10.27C16.31 11.22 16.31 12.78 14.66 13.73Z" fill-rule="evenodd" fill="#FFFFFF"/>
	<g opacity="0.000000"/>
	<defs/>
</svg>
